# xmcd CD database file
#
# Track frame offsets:
#	150
#	14190
#	34257
#	60192
#	77727
#	91220
#	105017
#	126422
#	162625
#	186210
#	212097
#	241962
#	277302
#
# Disc length: 4121 seconds
#
# Revision: 0
# Processed by: cddbd v1.5.2PL0 Copyright (c) Steve Scherf et al.
# Submitted via: Feurio! 1.68 - http://www.feurio.com
#
DISCID=b410170d
DTITLE=Janis Joplin - 1989 # Joplin in Concert
DYEAR=1989
DGENRE=
TTITLE0=Down On Me
TTITLE1=Bye, Bye Baby
TTITLE2=All Is Loneliness
TTITLE3=Half Moon
TTITLE4=Road Block
TTITLE5=Flower In The Sun
TTITLE6=Summertime
TTITLE7=Ego Rock
TTITLE8=Half Moon
TTITLE9=Kozmic Blues
TTITLE10=Move Over
TTITLE11=Try (Just A Little Bit Harder)
TTITLE12=Get It While You Can
EXTD=
EXTT0=
EXTT1=
EXTT2=
EXTT3=
EXTT4=
EXTT5=
EXTT6=
EXTT7=
EXTT8=
EXTT9=
EXTT10=
EXTT11=
EXTT12=
PLAYORDER=
